<?xml version="1.0" standalone="no"?>
<!DOCTYPE svg PUBLIC "-//W3C//DTD SVG 20010904//EN"
 "http://www.w3.org/TR/2001/REC-SVG-20010904/DTD/svg10.dtd">
<svg version="1.0" xmlns="http://www.w3.org/2000/svg"
 width="5000.000000pt" height="619.000000pt" viewBox="0 0 5000.000000 619.000000"
 preserveAspectRatio="xMidYMid meet">

<g transform="translate(0.000000,619.000000) scale(0.100000,-0.100000)"
fill="#000000" stroke="none">
<path d="M24005 5890 c-550 -56 -1013 -319 -1367 -773 -431 -554 -648 -1233
-648 -2022 0 -753 200 -1392 602 -1926 199 -265 423 -450 719 -594 365 -177
847 -269 1334 -252 688 24 1168 241 1553 702 248 296 447 722 532 1138 12 60
20 111 17 114 -6 5 -1165 493 -1173 493 -2 0 -4 -10 -4 -22 0 -37 -57 -305
-85 -403 -64 -223 -164 -417 -274 -537 -146 -158 -312 -227 -521 -215 -404 22
-630 355 -707 1040 -23 213 -23 722 1 937 60 550 214 873 471 990 80 37 148
50 253 50 174 0 317 -59 453 -188 132 -124 226 -284 291 -498 l32 -104 568 0
568 0 0 980 0 980 -447 0 c-247 0 -492 3 -545 7 l-98 6 0 -182 0 -183 -37 32
c-281 235 -558 358 -938 415 -124 19 -429 27 -550 15z"/>
<path d="M300 5185 l0 -645 185 0 185 0 0 -1405 0 -1405 -185 0 -185 0 0 -640
0 -640 1235 0 1235 0 0 634 0 633 -31 7 c-17 3 -94 6 -170 6 l-139 0 0 455 0
455 279 0 279 0 86 -192 c48 -106 271 -600 495 -1098 l407 -905 817 -3 817 -2
0 640 0 640 -159 0 -160 0 -162 317 c-89 175 -231 453 -315 618 l-153 301 90
59 c106 70 242 205 317 317 225 334 308 759 233 1200 -93 540 -461 981 -954
1142 -166 54 -445 99 -777 126 -173 14 -1366 28 -2437 29 l-833 1 0 -645z
m2721 -555 c136 -14 222 -40 292 -90 111 -80 173 -204 184 -371 19 -279 -128
-486 -377 -529 -36 -7 -206 -14 -377 -17 l-313 -6 0 512 0 511 244 0 c134 0
290 -5 347 -10z"/>
<path d="M6030 5177 l0 -647 180 0 180 0 0 -1405 0 -1405 -180 0 -180 0 0
-640 0 -640 918 0 c504 0 1481 -3 2170 -7 l1252 -6 0 861 0 862 -595 0 -595 0
0 -215 0 -215 -520 0 -520 0 0 408 c0 224 3 424 7 446 l6 38 446 -3 446 -4 0
545 0 545 -447 3 -448 2 0 410 0 410 520 0 520 0 0 -215 0 -215 595 0 595 0 0
860 0 860 -712 0 c-392 0 -1371 3 -2175 7 l-1463 6 0 -646z"/>
<path d="M47306 5810 c-287 -36 -533 -147 -745 -334 -244 -217 -395 -494 -463
-851 -20 -106 -23 -150 -23 -385 0 -239 3 -275 23 -370 59 -268 175 -516 346
-735 172 -220 436 -408 1026 -730 523 -287 640 -379 691 -547 25 -82 22 -199
-7 -282 -24 -69 -94 -138 -169 -166 -85 -33 -250 -34 -350 -3 -226 71 -381
256 -486 581 l-33 102 -508 0 -508 0 0 -860 0 -860 505 0 505 0 0 175 c0 96 3
175 6 175 3 0 29 -20 57 -44 186 -157 440 -283 692 -342 112 -26 135 -28 340
-29 178 0 236 4 304 19 274 60 481 169 679 360 379 365 544 806 511 1366 -25
407 -181 798 -446 1112 -139 164 -343 306 -1041 724 -580 348 -640 393 -677
503 -25 75 -18 226 14 296 49 110 129 156 282 163 303 13 533 -182 658 -560
l23 -68 509 0 509 0 0 760 0 760 -395 2 c-217 2 -448 3 -512 3 l-118 0 -3
-163 -3 -163 -77 64 c-199 165 -397 260 -639 307 -122 24 -365 34 -477 20z"/>
<path d="M11110 5176 c0 -350 0 -638 0 -641 0 -3 79 -7 175 -10 l175 -5 0
-1405 0 -1405 -180 0 -180 0 0 -640 0 -640 1279 0 c1476 0 1754 9 2111 70 362
62 654 197 937 433 228 190 393 412 556 745 148 302 236 598 284 960 21 161
25 664 5 822 -72 586 -265 1086 -570 1480 -180 232 -476 466 -762 602 -241
115 -460 173 -810 217 -327 41 -422 43 -1737 48 l-1283 5 0 -636z m2555 -686
c177 -38 287 -93 384 -191 211 -214 316 -577 328 -1131 9 -422 -31 -698 -144
-983 -72 -182 -171 -294 -328 -370 -150 -73 -324 -105 -571 -105 l-114 0 0
1406 0 1407 173 -6 c117 -4 204 -13 272 -27z"/>
<path d="M16930 5155 l0 -645 180 0 180 0 0 -1298 c0 -715 -3 -1347 -7 -1405
l-6 -107 -174 0 -173 0 0 -640 0 -640 1463 0 c805 0 1782 -3 2170 -7 l707 -6
0 861 0 862 -595 0 -595 0 0 -215 0 -215 -520 0 -520 0 2 443 3 442 446 3 447
2 7 463 c4 254 5 498 3 542 l-3 80 -447 3 -448 2 0 416 0 417 38 -7 c20 -3
254 -6 520 -6 l482 0 0 -215 0 -215 595 0 595 0 0 858 0 859 -1252 6 c-689 4
-1668 7 -2175 7 l-923 0 0 -645z"/>
<path d="M27820 5135 l0 -645 180 0 c99 0 180 -3 180 -7 0 -5 -193 -636 -428
-1403 l-427 -1395 -173 -3 -172 -2 0 -640 0 -640 895 0 895 0 0 163 c0 89 3
354 7 589 l6 428 -189 2 -189 3 99 338 100 337 586 0 586 0 83 -332 c46 -183
84 -337 85 -342 1 -5 -83 -8 -196 -7 l-198 3 0 -591 0 -591 1185 0 1185 0 0
633 0 634 -162 7 c-90 4 -166 10 -169 14 -6 6 -837 2697 -854 2765 l-7 27 181
0 181 0 0 650 0 650 -1635 0 -1635 0 0 -645z m1585 -1460 c102 -396 188 -728
191 -737 5 -17 -19 -18 -406 -18 -387 0 -411 1 -406 18 3 9 98 337 211 727
242 836 217 752 222 740 1 -6 86 -334 188 -730z"/>
<path d="M32225 5248 c-3 -288 -5 -577 -3 -643 l3 -120 198 -3 197 -2 0 -1405
0 -1405 -200 0 -200 0 0 -634 0 -633 92 -7 c50 -3 468 -6 930 -6 l838 0 0 258
c0 141 3 429 7 640 l6 382 -202 0 c-158 0 -203 3 -207 13 -3 8 -1 435 3 949
l8 935 845 -1435 c465 -790 895 -1520 955 -1623 l110 -188 746 -1 746 0 6
1418 c4 779 7 1713 7 2075 l0 657 200 0 200 0 0 643 0 644 -227 6 c-124 4
-538 7 -920 7 l-693 0 0 -645 0 -645 185 0 185 0 0 -760 c0 -418 -2 -760 -4
-760 -2 0 -375 632 -827 1405 l-824 1405 -1076 0 -1077 0 -7 -522z"/>
<path d="M38540 5115 l0 -645 181 0 181 0 -7 -27 c-3 -16 -166 -550 -361
-1188 -195 -638 -382 -1248 -415 -1355 -32 -107 -63 -205 -69 -218 -9 -22 -13
-22 -180 -22 l-170 0 0 -633 0 -634 302 -6 c166 -4 571 -7 900 -7 l598 0 0
590 0 590 -185 0 c-102 0 -185 3 -185 8 0 4 43 157 97 339 l98 333 588 0 c323
0 587 -1 587 -3 0 -2 38 -153 85 -337 47 -184 85 -336 85 -337 0 -2 -90 -3
-200 -3 l-200 0 0 -590 0 -590 1185 0 1185 0 0 640 0 640 -166 2 -166 3 -429
1394 c-236 766 -429 1397 -429 1402 0 5 81 9 179 9 l180 0 3 638 c2 350 2 640
0 645 -2 4 -739 7 -1638 7 l-1634 0 0 -645z m1595 -1482 c102 -397 185 -724
185 -727 0 -7 -805 -8 -812 -1 -2 3 43 170 102 373 59 202 156 535 215 741 76
260 111 368 117 355 4 -10 91 -344 193 -741z"/>
<path d="M42967 5754 c-4 -4 -7 -295 -7 -646 l0 -638 210 0 210 0 0 -1405 0
-1405 -210 0 -210 0 0 -638 0 -639 767 -6 c421 -4 1002 -7 1290 -7 l523 0 0
333 c0 182 3 470 7 639 l6 308 -211 0 -212 0 0 543 c0 298 3 930 7 1405 l6
862 202 0 202 0 6 443 c4 243 7 533 7 645 l0 202 -1272 0 c-700 0 -1282 3
-1293 6 -11 3 -24 2 -28 -2z"/>
</g>
</svg>
